<?xml version="1.0" encoding="UTF-8"?><svg id="Layer_1" xmlns="http://www.w3.org/2000/svg" width="48" height="81" viewBox="0 0 48 81"><defs><style>.cls-1{fill:#2f82bf;}.cls-2{fill:#beddf2;}.cls-3{fill:#093d30;}</style></defs><path class="cls-3" d="m23.8,29.27h0c11.86,0,21.49,9.63,21.49,21.49v21.83c0,2.04-1.66,3.7-3.7,3.7H6.01c-2.04,0-3.7-1.66-3.7-3.7v-21.83c0-11.86,9.63-21.49,21.49-21.49Z"/><path class="cls-1" d="m23.8,48.52h0c7.18,0,13,5.83,13,13v14.34H10.8v-14.34c0-7.18,5.83-13,13-13Z"/><rect class="cls-3" x="18.03" y="16.56" width="11.7" height="20.14"/><path class="cls-2" d="m24.2,20.48h0c1.61,0,2.92,1.31,2.92,2.92v4.84c0,.38-.31.69-.69.69h-4.47c-.38,0-.69-.31-.69-.69v-4.84c0-1.61,1.31-2.92,2.92-2.92Z"/><path class="cls-2" d="m32.98,16.24c0-4.49-4.07-8.12-9.1-8.12s-9.1,3.64-9.1,8.12,3.42.97,8.45.97,9.75,3.51,9.75-.97Z"/><rect class="cls-2" x="23.23" y="4.22" width="1.3" height="5.2" rx=".25" ry=".25"/><rect class="cls-2" x="22.58" y="4.87" width="2.6" height="1.3" rx=".21" ry=".21"/></svg>