<?xml version="1.0" encoding="UTF-8"?><svg id="Layer_1" xmlns="http://www.w3.org/2000/svg" width="123.8" height="121" viewBox="0 0 123.8 121"><defs><style>.cls-1{fill:#ffffdb;}.cls-2{fill:#e1edff;}.cls-3{fill:#093d30;}</style></defs><g><path class="cls-2" d="m94.02,47.32h-.04c.02.45.04.9.04,1.35v-1.35Z"/><path class="cls-3" d="m94.02,47.32h-.04c.02.45.04.9.04,1.35v-1.35h0Z"/></g><g><path class="cls-2" d="m26.02,47.32v1.35c0-.45.01-.9.04-1.35h-.04Z"/><path class="cls-3" d="m26.06,47.32h-.04v1.35c0-.45.01-.9.04-1.35h0Z"/></g><g><path class="cls-2" d="m86.13,52.72h-.03c.02.45.03.9.03,1.35v-1.35Z"/><path class="cls-3" d="m86.13,52.72h-.03c.02.45.03.9.03,1.35v-1.35h0Z"/></g><g><path class="cls-2" d="m34.01,52.72v1.35c0-.45.01-.9.03-1.35h-.03Z"/><path class="cls-3" d="m34.04,52.72h-.03v1.35c0-.45.01-.9.03-1.35h0Z"/></g><path class="cls-3" d="m94.02,81.76v-33.09c0-.45-.01-.9-.04-1.35-.8-15.91-15.7-28.59-33.97-28.59s-33.16,12.68-33.97,28.59c-.02.45-.04.9-.04,1.35v33.33-.24c0,11.78-10.38,21.42-23.52,22.23v7.11c16.04-.74,31.51-11.98,31.51-23.89v-34.48h.03c.61-15.93,12.11-26.67,26.11-26.67s25.34,10.74,25.95,26.67h.03v34.48c0,11.98,12.65,23.28,31.67,22.46v-5.66c-13.26-.7-23.78-10.39-23.78-22.24Z"/><path class="cls-3" d="m94.02,81.76c0,11.85,10.51,21.54,23.78,22.24v-1.34c-13.26-.7-23.78-9.05-23.78-20.9Z"/><path class="cls-3" d="m19.88,79.27c0-9.53-7.73-17.26-17.26-17.26-.04,0-.08,0-.12,0,0,.21,0,.42,0,.64v33.87s.08,0,.13,0c9.53,0,17.26-7.73,17.26-17.26Z"/><circle class="cls-1" cx="60.15" cy="51.91" r="17.26"/><circle class="cls-3" cx="60.15" cy="51.91" r="17.26"/><path class="cls-3" d="m117.79,62.15c-.71-.09-1.43-.14-2.17-.14-9.53,0-17.26,7.73-17.26,17.26s7.73,17.26,17.26,17.26c.74,0,1.46-.05,2.17-.14v-33.73c0-.17,0-.33,0-.5Z"/></svg>