<?xml version="1.0" encoding="UTF-8"?><svg id="Layer_1" xmlns="http://www.w3.org/2000/svg" width="58" height="75" viewBox="0 0 58 75"><defs><style>.cls-1{fill:#beddf2;}.cls-2{fill:#093d30;}.cls-3{fill:#4ea66f;}</style></defs><rect class="cls-3" x="18.14" y="35.39" width="2.49" height="30.87"/><ellipse class="cls-3" cx="19.14" cy="64.76" rx="13.94" ry="3.98"/><rect class="cls-1" x="43.54" y="25.74" width="2.99" height="42.51" rx="1.44" ry="1.44"/><path class="cls-1" d="m51.17,5.45h-1.82c-.38,0-.68.35-.68.79v12.14c0,.24-.17.43-.37.43s-.37-.19-.37-.43V6.24c0-.44-.31-.79-.68-.79h-1.23c-.38,0-.68.36-.68.79v12.14c0,.24-.17.43-.37.43s-.37-.19-.37-.43V6.22c0-.43-.3-.78-.67-.78h-1.26c-.37,0-.67.35-.67.78v12.16c0,.24-.17.43-.37.43s-.37-.19-.37-.43V6.24c0-.44-.3-.79-.68-.79h-2.19c-.46,0-.83.43-.83.97v12.82c0,4.57,3.05,8.47,6.97,8.62,4.1.16,7.47-3.66,7.47-8.4V6.41c0-.53-.37-.97-.83-.97Z"/><path class="cls-2" d="m7.38,5.02h23.52c1.2,0,2.18.98,2.18,2.18v22.75c0,7.4-6.01,13.4-13.4,13.4h-1.07c-7.4,0-13.4-6.01-13.4-13.4V7.2c0-1.2.98-2.18,2.18-2.18Z"/></svg>