<?xml version="1.0" encoding="UTF-8"?><svg id="Layer_1" xmlns="http://www.w3.org/2000/svg" width="76" height="75" viewBox="0 0 76 75"><defs><style>.cls-1{fill:#f3ece1;}.cls-2{fill:#ffffdb;}.cls-3{fill:#2f82bf;}.cls-4{fill:#beddf2;}.cls-5{fill:#093d30;}.cls-6{fill:#4ea66f;}</style></defs><path class="cls-6" d="m26.4,37.78l10.54,1.01c.56.05,1.1-.19,1.43-.65l6.15-8.62c.32-.46.38-1.05.15-1.56l-4.39-9.64c-.23-.51-.72-.86-1.28-.91l-10.54-1.01c-.56-.05-1.1.19-1.43.65l-6.15,8.62c-.32.46-.38,1.05-.15,1.56l4.39,9.64c.23.51.72.86,1.28.91Z"/><path class="cls-5" d="m42.47,51.07c.32-.46.38-1.05.15-1.56l-4.39-9.64c-.23-.51-.72-.86-1.28-.91l-10.54-1.01c-.56-.05-1.1.19-1.43.65l-6.15,8.62c-.32.46-.38,1.05-.15,1.56l4.39,9.64c.23.51.72.86,1.28.91l10.54,1.01c.56.05,1.1-.19,1.43-.65l6.15-8.62Z"/><path class="cls-5" d="m22.78,58.44l-4.39-9.64c-.23-.51-.72-.86-1.28-.91l-10.54-1.01c-.09,0-.18,0-.27,0,1.62,7.74,6.01,14.46,12.08,19.07l4.25-5.95c.32-.46.38-1.05.15-1.56Z"/><path class="cls-2" d="m20.79,25.54l6.15-8.62c.32-.46.38-1.05.15-1.56l-2.12-4.66c-6.71,2.93-12.23,8.08-15.63,14.52l10.03.97c.56.05,1.1-.19,1.43-.65Z"/><path class="cls-4" d="m17.24,47.67c.56.05,1.1-.19,1.43-.65l6.15-8.62c.32-.46.38-1.05.15-1.56l-4.39-9.64c-.23-.51-.72-.86-1.28-.91l-10.01-.96c-2.34,4.46-3.66,9.54-3.66,14.93,0,2.15.21,4.25.61,6.28.14.06.3.1.46.12l10.54,1.01Z"/><path class="cls-2" d="m58.26,30.94l4.39,9.64c.23.51.72.86,1.28.91l6.13.59c.03-.6.05-1.21.05-1.82,0-7.02-2.24-13.51-6.05-18.8l-5.65,7.93c-.32.46-.38,1.05-.15,1.56Z"/><path class="cls-6" d="m62.5,42.32l-6.15,8.62c-.32.46-.38,1.05-.15,1.56l4.39,9.64c.1.22.25.4.43.55,5.19-5.36,8.54-12.51,9.02-20.44l-6.11-.59c-.56-.05-1.1.19-1.43.65Z"/><path class="cls-3" d="m60.3,62.16l-4.39-9.64c-.23-.51-.72-.86-1.28-.91l-10.54-1.01c-.56-.05-1.1.19-1.43.65l-6.15,8.62c-.32.46-.38,1.05-.15,1.56l4.39,9.64c.23.51.72.86,1.28.91l1.07.1c6.65-1.09,12.61-4.2,17.23-8.69.16-.39.15-.84-.03-1.23Z"/><path class="cls-4" d="m40.67,18.34l4.39,9.64c.23.51.72.86,1.28.91l10.54,1.01c.56.05,1.1-.19,1.43-.65l5.65-7.93c-4.27-5.88-10.48-10.26-17.68-12.2l-5.46,7.65c-.32.46-.38,1.05-.15,1.56Z"/><path class="cls-1" d="m38.54,39.83l4.39,9.64c.23.51.72.86,1.28.91l10.54,1.01c.56.05,1.1-.19,1.43-.65l6.15-8.62c.32-.46.38-1.05.15-1.56l-4.39-9.64c-.23-.51-.72-.86-1.28-.91l-10.54-1.01c-.56-.05-1.1.19-1.43.65l-6.15,8.62c-.32.46-.38,1.05-.15,1.56Z"/><path class="cls-1" d="m28.6,16.07l10.54,1.01c.56.05,1.1-.19,1.43-.65l5.29-7.42c-2.56-.65-5.24-1-8-1-4.48,0-8.75.92-12.63,2.57l2.09,4.58c.23.51.72.86,1.28.91Z"/><path class="cls-2" d="m41.87,72.08c-.38-.04-.75.07-1.06.29.61-.05,1.21-.13,1.8-.21l-.75-.07Z"/><path class="cls-6" d="m40.5,71.04l-4.39-9.64c-.23-.51-.72-.86-1.28-.91l-10.54-1.01c-.56-.05-1.1.19-1.43.65l-4.27,5.98c5.38,4.01,12.05,6.39,19.27,6.39.88,0,1.75-.04,2.6-.1.21-.42.23-.92.03-1.35Z"/></svg>