<?xml version="1.0" encoding="UTF-8"?><svg id="Layer_1" xmlns="http://www.w3.org/2000/svg" width="785" height="783.5" viewBox="0 0 785 783.5"><defs><style>.cls-1{fill:#beddf2;}</style></defs><path class="cls-1" d="m506.04,213c-5.09,1.85-10.3,3.43-15.22,5.65-2.34,1.06-4.13,3.32-6.17,5.04,1.51,1.79,2.96,3.64,4.56,5.34,1.36,1.44,3.18,2.51,4.31,4.09,3.11,4.36,1.47,9.36-3.75,10.53-3.92.88-8.02,1.67-11.73-1.78-1.28-1.19-4.71-1.43-6.27-.54-1.56.88-3.2,4.05-2.75,5.63,1.51,5.28-.08,9.69-2.01,14.4-2.29,5.6-1.38,7.58,3.72,10.73,2.13,1.31,4.25,2.63,6.42,3.86,1.15.65,2.54,1.75,3.6,1.54,5.56-1.12,10.96-3.11,16.83-1.88.46.1,1.88-2.16,2.1-3.46,1.14-6.81,4.85-11.65,10.98-14.51,3.96-1.85,6.49-4.57,7.16-8.89.62-3.96,2.93-5.05,6.44-3.7,4.92,1.89,9.3,2.23,12.87-2.71.54-.74,2.94-.89,4-.36,4.24,2.12,7.87,4.79,8.6,10.16.79,5.78,2.37,6.72,8.03,5.83,6.25-.98,6.78-.53,7.01,5.85.02.5,0,1,.03,1.5.28,3.42,1.2,6.51,5.4,6.35,3.18-.12,4.8-3.83,4.1-7.8-.26-1.49.74-3.24.39-4.69-.39-1.62-1.28-3.59-2.58-4.45-4.28-2.84-9.07-4.94-13.21-7.95-2.63-1.91-4.46-4.94-6.65-7.46.4-.47.8-.93,1.2-1.4,7.07,3.76,14.21,7.39,21.13,11.41,1.28.74,2.08,3.02,2.32,4.7,1.64,11.15,1.57,11.16,11.63,12.26-.06.3-.01.75-.19.88-2.4,1.74-6.13,3.59-3.91,6.8,1.38,2,5.48,3.19,8.14,2.87,1.81-.22,4.05-3.45,4.66-5.72,1.52-5.57-1.87-9.43-5.95-13.69,5.2-.28,10.4-.56,16.55-.9-3.04,5.32-1.78,14.25,1.4,17.49,3.46,3.54,6.88,3.68,13.18.7,1-.47,2.62-1.16,3.19-.73,4.18,3.12,8.14,1.39,12.28,0,2.82-.95,4.48.26,4.43,3.44-.05,3.17,0,6.33,0,9.5,0,6.78-1.97,9.06-8.79,9.7-6.24.58-12.52,1.39-18.75,1.2-3.66-.11-7.32-1.8-10.88-3.08-4.36-1.56-8.52-3.74-12.93-5.09-4.28-1.31-7.32.36-8.86,4.87-3.02,8.84-7,9.91-13.57,3.41-5.01-4.96-10.63-7.91-17.74-7.76-3.57.07-4.64-1.95-4.4-5.13.11-1.49.34-3,.25-4.48-.45-6.99-4.81-9.98-11.22-7.19-4.38,1.91-8.3,2.48-12.88.6-5.51-2.26-10.96-.31-15.87,2.2-7.57,3.87-15.02,6-23.87,5.04-8.98-.98-15.07,6.07-21.11,11.64-1.41,1.3-1.28,4.71-1.18,7.13.15,3.77-1.11,6.34-4.47,8.14-8.54,4.55-14.82,11.14-18.26,20.35-.86,2.3-2.15,4.62-3.81,6.4-4.42,4.74-4.57,10.07-1.73,15.2,2.84,5.13,2.42,9.68-.87,13.95-8.84,11.48-4.27,22.33,2.75,30.27,4.61,5.21,8.55,11.06,13.48,15.92,4.33,4.26,9.28,8.2,14.62,11.01,2.97,1.56,7.32.71,11.03.58,4.1-.14,8.23-1.25,12.27-.96,6.8.49,13.11.03,19.36-3.21,3.23-1.67,7.3-2,11.04-2.31,2.69-.22,4.62,1.13,6.07,4.07.94,1.9,4.29,3.51,6.64,3.64,10.96.6,13.95,4.5,12.05,15.34-1.8,10.25.55,19.7,6.97,28.14,1.69,2.22,2.4,5.22,3.46,7.89.79,1.98,1.19,4.15,2.17,6.02,3.08,5.93,3.99,12.13,1.65,18.35-2.85,7.57-3.48,15.07-1.98,23.01,1.14,6.04,1.11,12.3,2.28,18.33,1.01,5.17,2.99,10.14,4.53,15.21,1.15,3.79,2.59,7.52,3.34,11.39.85,4.41,2.11,8.15,6.2,10.82,4.28,2.79,5.28,7.47,5.24,12.33-.01,1.66-.36,3.32-.34,4.98.1,8.06,6.59,11.83,13.27,7.37,3.02-2.01,5.21-2.33,8.58-.87,2.2.95,5.87.89,7.82-.36,5.85-3.75,11.39-8.07,16.64-12.63,5.15-4.47,9.91-9.41,14.6-14.37,1.63-1.73,3.41-4.1,3.55-6.28.28-4.4,2.51-7.09,5.76-9.36,5.64-3.93,8.04-8.61,5.98-15.85-.86-3.03.44-7.43,2.22-10.3,2.86-4.59,6.57-8.83,10.6-12.48,6.54-5.92,8.53-12.73,7.78-21.46-.94-11.07-.71-22.27-.5-33.4.12-6.47,3.71-11.67,8.18-16.12,7.32-7.28,15.34-13.94,22.01-21.76,7.09-8.32,12.97-17.68,19.32-26.63.85-1.2,1.83-2.65,1.88-4.03.1-2.47.36-5.64-.98-7.26-1.12-1.35-4.44-1.27-6.75-1.14-1.72.09-3.33,1.5-5.09,1.91-7.56,1.79-15.13,3.58-22.75,5.07-3.23.63-4.87-1.3-6.25-4.35-1.79-3.94-3.99-8.11-7.13-10.95-6.44-5.82-10.98-12.35-12.49-21-.48-2.75-1.39-5.56-2.75-7.99-6.88-12.3-13.97-24.47-20.99-36.69-1.3-2.26-3.21-4.49-.46-6.94,4.31-.41,1.51,10.89,9.16,4.57,2.82,10.87,8.35,19.84,15.03,28.19,1.01,1.27,2.21,2.96,2.16,4.42-.19,6.96,3.93,10.58,9.11,14.26,5.38,3.83,7.28,10.14,8.38,16.52,1.6,9.28,4.53,11.59,13.85,9.88,3.31-.61,6.48-2.42,9.51-4.05,8.62-4.64,17.25-9.26,25.61-14.32,2.96-1.79,6.07-4.42,7.5-7.43,2.3-4.86,5.05-8.88,9.6-11.74,1.37-.86,2.56-2.17,3.52-3.5,2.98-4.11,1.91-6.69-2.97-8.02-2.71-.74-5.64-1.43-7.87-3-1.77-1.25-2.7-3.75-3.86-5.78-.93-1.61-1.66-3.34-2.47-5.02-1.54.91-3.51,1.49-4.56,2.81-3.49,4.35-8.01,5.62-12.95,4.06-4.93-1.56-10.05-3.04-11.22-9.81-.52-2.99-3.85-5.46-5.74-8.28-1.07-1.59-1.79-3.41-2.67-5.13,2.05-.67,4.46-2.35,6.08-1.79,2.8.97,5.4,3.05,7.57,5.19,1.98,1.95,3.2,4.65,4.87,6.92,3.54,4.81,8.2,6.8,13.99,4.79,3.82-1.33,6.21-.06,9.32,2.4,3.14,2.48,7.59,3.79,11.66,4.48,4.35.74,8.92.17,14.16.17,8.83,49.91,7.56,100.15-4.43,149.96-19.22,79.79-60.37,146.36-123.05,199.29-126.96,107.2-306.79,116-441.89,27.67C47.84,609.38,4.12,446.82,30.45,321.26c12.49-2.68,12.55-2.92,8.22-15.56-.56-1.64.34-3.79.57-5.71,1.7,1.22,3.7,2.19,5,3.75.83.99.87,2.85.83,4.31-.19,7.27,2.47,13.44,7.51,18.44,6.67,6.62,10.37,14.54,11.73,23.72.19,1.3.6,2.63,1.22,3.78,5.2,9.64,21.72,17.32,32.64,15.12,4.75-.96,8.13,1.14,10.83,4.61,2.29,2.95,4.94,4.37,8.81,4.73,8.57.81,13.33,7.2,17.13,13.89,6.86,12.09,15.82,16.21,28.73,12.13,3.49-1.1,5.76.72,6.01,3.35.51,5.32.84,10.94-.4,16.04-1.01,4.13-3.88,8.21-6.92,11.35-5.49,5.66-5.82,11.81-3.97,18.82.47,1.78.53,4.06-.19,5.68-1.93,4.32-1.25,8.31,1.14,11.89,8.38,12.61,16.79,25.23,25.64,37.5,2.44,3.38,6.17,6.19,9.87,8.22,8.22,4.5,11.88,11.41,12.17,20.36.23,7.32-.38,14.72,3.83,21.31.25.39.25.96.3,1.46,1.3,13.89,3.31,27.75,3.66,41.66.31,12.66,1.27,24.47,7.78,36.03,2.61,4.63,4.58,12.42.38,18.74-1.81,2.72-.77,4.78,1.2,7.09,4.16,4.88,7.78,10.22,11.99,15.05,2.96,3.4,6.07,7.18,9.95,9.15,4.94,2.51,8.72-.64,7.91-6.16-.75-5.13.4-9.26,3.08-13.65,1.22-2,.91-5.97-.28-8.2-2.93-5.49-5.52-10.48-1.71-16.71.87-1.42-.05-4.08-.5-6.09-.33-1.49-1.22-2.86-2.28-5.21,6.27,1.48,8.73-.62,9-6.08.05-1.08,3.07-2.74,4.83-2.89,10.58-.9,13.58-6.7,7.94-15.81-1.19-1.92-2.29-3.9-3.73-6.35,1.58-.29,2.62-.84,3.34-.56,8.36,3.27,12.48-2.46,16.99-7.71,2.68-3.12,5.35-6.52,8.73-8.69,4.78-3.08,6.94-6.94,6.68-12.42-.12-2.49-.07-5.02-.42-7.48-1.19-8.38-1.1-8.73,6.89-11.49,2.49-.86,5.13-1.45,7.75-1.79,8.69-1.12,13.91-4.98,15.57-13.73,1.67-8.79,1.89-17.85,3.12-26.74.41-2.93,1.79-5.79,3.05-8.53.89-1.94,2.72-3.48,3.43-5.45,1.98-5.54,4.15-10.58,9.37-14.24,2.03-1.42,2.88-5.54,2.97-8.47.15-4.82-2.29-6.42-7.05-5.69-1.15.18-2.31.39-3.42.74-3.91,1.24-6.02-.27-9.08-3.22-4.99-4.81-11.45-8.26-17.7-11.5-1.71-.89-4.91.91-7.36,1.7-1.98.64-3.71,1.73-4.5-1.51-1.57-6.51-7.04-8.13-12.62-3.89q-3.45,2.62-5.79,1.63c.57-2.43,1.98-4.92,1.41-6.81-.78-2.61-3.14-1.99-12.33,2.37.69-1.52,1.11-3.26,2.12-4.53,2.54-3.23,2.84-6.59,1.49-10.33-3.02-8.32-8.69-14.1-16.77-17.49-10.02-4.2-19.64-9.03-27.45-16.8-2.95-2.94-6.36-4.17-10.44-3.44-4.45.79-8.12-.7-11.55-3.44-1.79-1.43-3.84-2.73-5.97-3.52-6.27-2.33-10.55,1.18-9.96,7.78.17,1.87-.28,3.79-.45,5.68-.91-.15-2.54-.16-2.6-.47-.39-1.98-.91-4.14-.46-6.02.71-2.92,3.8-6.19-.03-8.39-3.79-2.18-6.29,1.36-8.79,3.8-3.43,3.36-6.87,6.71-10.48,9.88-2.15,1.89-4.08,1.52-6.58-.35-1.91-1.43-5.26-2.1-7.59-1.54-4.82,1.15-8.98.81-12.48-2.69-3.66-3.66-4.1-8.05-2.5-12.94,3.12-9.56,1.03-12.4-9-12.74-6.65-.23-8.99-3.99-5.98-9.94,1.12-2.21,2.82-4.12,4.1-6.25,2.1-3.49,1.15-5.98-2.7-7.37-5.36-1.94-8.79-.05-11.72,4.88-1.44,2.41-4.43,4.73-7.14,5.41-10.12,2.54-19.46-5.19-19.47-15.68,0-8.43,1.11-16.63,5.82-23.93,5.95-9.23,12.61-11.98,23.18-9.4,5.78,1.41,11.2,1.88,15.65-3.2.68-.78,2.01-1.26,3.1-1.38,7-.77,17.95,7.87,19.04,14.87.33,2.13.39,4.39,1.19,6.33.54,1.32,2.11,3.01,3.3,3.06,1.2.06,3.33-1.5,3.58-2.67.93-4.34,1.89-8.83,1.7-13.21-.55-12.38-.82-12.51,10.58-16.69,10.18-3.73,14.65-11.72,15.97-21.61.51-3.82,2.08-5.25,5.15-6.83,4.18-2.15,7.97-5.07,11.85-7.78,2.04-1.42,3.81-3.22,5.85-4.65,5.12-3.6,10.22-7.23,15.5-10.56,5.05-3.18,10.12-6.69,16.3-1.67,1.24,1.01,3.94.77,5.8.36,5.19-1.13,10.4-2.36,15.36-4.19,1.69-.63,2.68-3.18,3.98-4.85-1.73-1.29-3.3-3.31-5.22-3.72-3.2-.68-6.62-.29-9.94-.48-.54-.03-1.05-.71-1.73-1.21.62-1.09,1.54-2.04,1.65-3.07.17-1.52.28-3.55-.56-4.53-.86-1.01-3.11-1.7-4.37-1.31-2.3.71-4.23,2.55-6.49,3.48-1.48.61-3.27.46-4.92.66.86-1.33,1.48-3.5,2.63-3.85,6.48-1.94,13.02-3.96,19.69-4.94,6.73-.98,13.64-.57,20.45-1.14,6.88-.58,13.08-3,16.98-9.09,1.02-1.59.82-3.97,1.18-5.98-1.82-.31-3.66-.99-5.45-.86-3.54.26-7.04.97-11.25,1.59,1.91-6.45,11.12-12.42-.67-17.42,1.11-2.2,2.72-4.27,3.17-6.57.42-2.19-.38-4.61-.64-6.93-2.1.5-4.49.54-6.22,1.62-2.2,1.38-3.65,3.96-5.85,5.37-1.62,1.04-4.03,1.63-5.85,1.25-.96-.2-1.84-2.87-1.98-4.5-.56-6.66-1.59-7.95-8.15-9.09-9.13-1.59-16.05,1.67-20.51,9.76-1.04,1.89-2.08,3.84-2.73,5.88-2.75,8.59-7.69,14.64-16.63,17.83-3.38,1.21-5.53,5.68-8.45,8.45-1.71,1.62-3.83,2.81-5.76,4.2-.66-2.36-2.22-4.89-1.81-7.05,1.69-8.85,1.83-8.63-6.64-12.25-4.39-1.87-8.86-3.98-12.56-6.92-4.86-3.85-4.52-7.83-.29-12.32,4.34-4.61,9.18-7.96,15.72-8.91,2.21-.32,4.04-2.8,6.19-4.06,1.53-.9,3.27-1.85,4.98-1.97,3.93-.28,7.84.14,8.29-5.56.07-.84,2.83-1.99,4.41-2.1,5.65-.4,11.33-.3,16.98-.63,2.63-.15,5.37-.46,7.8-1.38,3.21-1.21,5.3-3.87,4.47-7.45-.88-3.8-4-5.54-7.62-4.8-2.99.62-5.79,2.3-8.57,3.72-2.92,1.49-5.62,3.77-6.93-1.8-.32-1.36-2.87-2.2-4.2-3.14.79-1.85,1.56-3.67,2.33-5.49-2.29-.54-4.6-1.58-6.85-1.47-2.4.11-4.88,1.05-7.06,2.15-.88.44-1.67,2.43-1.44,3.47,1.08,4.85-1.13,8.64-6.29,8.56-8.08-.13-16.13-1.34-24.21-1.59-3.26-.1-7.1.23-9.74,1.87-6.31,3.93-6.08,4.29-11.43-1.2,5.72-4.35,11.94-4.93,18.94-3.58,4.1.79,8.61-.02,12.85-.71,3.13-.51,4.65-2.42,2.42-5.78-.69-1.05-1.01-2.83-.64-4,.97-3.07-.74-4.19-3.07-4.44-4.96-.53-9.97-.58-14.94-1.09-1.76-.18-3.59-.84-5.15-1.71-10.59-5.91-20.97-5.31-31.37.53-1.29.73-3.01.68-4.53,1h.06c1.82-1.38,3.74-2.65,5.46-4.16,59.14-52.2,127.64-84.19,206.2-92.26,120.71-12.4,223.92,25.55,309.73,111.18.81.81,1.51,1.71,2.27,2.58-5.17,4.13-8.2,3.98-13,.49-1.58-1.15-4.32-1.5-6.23-1.01-.93.24-1.82,3.34-1.57,4.97.89,5.98-1.76,9.19-7.78,8.62-1.81-.17-3.59-.71-5.36-1.16-4.88-1.23-5.48-.97-7.77,3.95-2.4-1.91-4.83-3.64-6.97-5.68-.79-.76-.89-2.25-1.3-3.41,1.34-.35,2.7-1.04,4.01-.95,1.25.08,2.39,1.15,3.67,1.48,2.06.53,4.23,1.28,6.27,1.07,3.55-.36,8.37-.53,8.62-5,.23-4.16-4.57-3.43-7.4-4.19-15.96-4.26-32.15-7.27-48.72-7.31-3.54,0-7.24.91-10.6,2.13-3.88,1.41-7.45,3.67-11.19,5.48-4.56,2.21-7.98,4.99-10.42,9.97-1.81,3.69-6.55,6.08-10.28,8.62-1.53,1.04-3.85.86-5.78,1.37-7.06,1.85-10.43,6.73-9.15,13.16,1.16,5.84,7.18,9.92,13.58,9.2,8.95-1,8.77-.91,12.34,6.87.98,2.15,3.94,5.45,5.01,5.11,3.45-1.08,7.19-3.02,9.39-5.77,1.95-2.44,2.99-5.08,6.52-6.01,3.12-.82,3.05-3.41,1.68-6.06q-5.65-10.94,3.57-18.95c2.35-2.03,4.76-3.99,7.14-5.99.44.32.88.63,1.32.95-1.31,2.27-2.47,4.63-3.95,6.79-5.31,7.75-2.83,14.28,6.49,15.2,4.99.49,10.15-.92,15.24-1.3,2.14-.16,4.31.13,6.47.22.07.76.14,1.52.2,2.28-2.71.73-5.39,1.66-8.14,2.13-2.11.37-4.32.27-6.48.21-7.87-.2-9.04,1.22-6.75,8.49-.48.1-.98.36-1.41.28q-7.92-1.45-8.33,6.64c-.17,3.35-2.04,5.36-5.29,5.5-2.44.1-4.9-.74-7.36-.8-2.23-.05-5.1-.39-6.57.8-3.77,3.03-7.57,3.11-11.71,1.74-5.4-1.79-10.57-1.26-15.39,1.58-6.68,3.94-13.19,8.15-19.83,12.15-2.24,1.35-4.64,2.42-6.97,3.62,2.37-2.25,4.89-4.37,7.04-6.82,1.09-1.25,1.99-3.08,2-4.66,0-.64-2.53-1.42-3.98-1.92-.92-.32-1.98-.4-2.96-.33-2.7.19-3.97-.88-4-3.68-.06-4.56-1.83-7.69-7.35-7.07,2.97-4.24-.32-11.91-4.94-12.34-1.08-.1-2.62.68-3.37,1.55-5.71,6.63-5.04,10.17,2.14,15.01,1.39.93,2.52,3.07,2.65,4.74.09,1.08-1.64,2.72-2.92,3.42-3.66,1.98-5.07,5.3-4.04,8.74.54,1.8,3.65,3.84,5.72,3.98,4.69.32,9.46-.47,14.2-.81Zm-69.57-93.87c.06-.27.12-.55.18-.82.87,0,1.81-.2,2.61.03,9.69,2.83,15.42,1.14,19.15-7.72,2.92-6.94,7.62-10.97,14.07-13.78,1.06-.46,2.18-1,2.98-1.8.97-.97,2.34-2.33,2.22-3.37-.14-1.18-1.55-2.54-2.75-3.18-1.24-.66-2.9-.48-4.36-.79-5.29-1.11-10.71-1.83-15.8-3.55-5.2-1.76-10.09-2.43-15.6-1.49-7.01,1.19-14.24,1.01-21.31,1.96-5.33.71-10.91,1.46-15.72,3.66-4.83,2.2-9.23,3.42-14.35,1.97-8.97-2.55-18.08-3.23-27.14-.76-13.75,3.75-27.47,7.63-41.07,11.87-1.82.57-3.77,3.47-3.96,5.46-.12,1.25,2.89,3.95,4.56,4,5.56.16,11.36.21,16.67-1.18,5.44-1.43,9.03-.15,12.2,3.96,5,6.48,5.63,16.58-.62,23.11-6.61,6.9-8.45,13-4.39,21.94,2.85,6.28,5.58,10.38,11.82,11.2,6.7.88,11.29-1.45,14.27-8.19,3.07-6.97,8.3-10.51,15.55-11.71,3.28-.54,6.63-1,9.77-2.04,3.26-1.09,6.8-2.28,9.34-4.44,4.68-4,9.92-5.86,15.84-6.61,7.75-.99,15.51-1.98,23.19-3.41,1.8-.34,4.48-2.35,4.59-3.76.14-1.81-1.49-4.32-3.1-5.58-2.63-2.06-5.86-3.36-8.84-4.98Zm-139.38,28.31c2.63.55,5.3,1.84,7.63,1.4,2.58-.49,5.75-2.01,7.06-4.09,1.89-2.99-.26-5.7-3.32-7.13-2.71-1.26-4.21-2.8-3.46-6.18.26-1.16-.91-3.4-2.03-3.96-4.68-2.35-9.45-5.4-14.46-6.04-6.97-.89-13.99-.93-20.94-2.74-3.94-1.03-8.43.19-12.67.1-3.66-.08-6.75.79-8.11,4.37-.49,1.28.09,4.3.49,4.36,2.91.41,5.89.3,8.85.27,1.51-.01,3.83-.86,4.4-.18,3.79,4.57,7.7,3.19,12.11,1.21,1.23-.55,3.57.17,4.82,1.1,2.84,2.1,5.41,4.6,7.89,7.13,1.37,1.39,2.33,3.18,3.47,4.8-1.97.8-4.36,2.74-5.84,2.2-5.5-2.01-10.18.12-14.87,2.08-1.71.72-2.92,2.63-4.35,4,1.6,1.4,2.99,3.44,4.85,4.08,4.26,1.46,7.7,3.27,9.79,7.69,1.66,3.51,5.08,4.99,9.96,4.24-.4-2.81-.77-5.4-.99-7,3.25-.46,7.77.17,9.37-1.69,1.62-1.9.36-6.26.36-10Zm-5.48-57.5c-.09.46-.18.91-.27,1.37-3.73,1.36-7.46,2.72-10.68,3.89.63,2.97,1.78,5.19,1.39,7.1-1.1,5.32.28,8.14,5.63,7.44,6.66-.87,13.63-2.14,19.57-5.06,10.77-5.29,21.34-10.63,33.29-12.87,3.09-.58,5.84-2.93,9.54-4.89-5.91-4.69-11.49-4.43-16.84-4.14-12.42.69-24.54-.32-36.46-4.17-2.88-.93-6.33-1.06-9.29-.45-1.78.36-3.97,2.69-4.35,4.47-.27,1.27,1.98,3.36,3.48,4.64,1.4,1.19,3.3,1.8,4.98,2.67Zm427.55,418.32c-2.27-3.36-3.71-7.62-6.61-9.25-3.84-2.15-6.98,1.46-9.43,4.54-.41.52-.67,1.2-1.17,1.61-3.24,2.65-6.24,5.79-9.87,7.73-5.49,2.93-9.76,9.26-7.92,14.57,1.68,4.83,1,8.48-2.34,12.32-3.5,4.03-3.36,9.4-.43,13.92,2.56,3.96,8.42,6.91,12.35,6.06,5.85-1.27,6.38-6.27,7.07-10.82,1.62-10.75,6.38-20.03,12.4-28.89,2.26-3.32,3.68-7.21,5.96-11.79ZM184.77,352.21c.5,0,1.03.11,1.49-.02,2.2-.63,4.38-1.33,6.57-2.01-1.56-1.92-2.84-4.2-4.75-5.67-3.13-2.41-6.76-4.17-10.02-6.43-7.94-5.51-16.32-5.17-24.69-1.61-1.59.68-2.25,3.54-3.33,5.4,2.06.9,4.09,2.4,6.2,2.52,2.39.14,4.84-1.28,7.29-1.39,1.81-.08,4.79.32,5.31,1.42,3.32,7.06,9.33,7.87,15.94,7.77Zm264.29-194.38c4.31-1.5,10.72-3.58,16.98-6.03.99-.39,1.96-2.46,1.83-3.64-.13-1.15-1.56-2.91-2.61-3.06-2.71-.4-5.54-.18-8.31,0-3.16.22-6.32,1-9.46.94-4.68-.08-10.19,3.06-10.13,6.27.05,3.11,4.21,5.55,11.71,5.51Zm-247.05,203.61c3.86-.2,6.99.16,9.78-.66,2.35-.69,5.75-2.45,6.13-4.27.78-3.81-3.14-5.09-5.97-4.92-6.73.38-13.44,1.41-20.09,2.56-1.1.19-2.69,2.39-2.57,3.51.12,1.15,1.92,2.8,3.21,3.03,3.4.62,6.92.59,9.52.76Zm66.83-244.77c3.66-.91,6.74-1.53,9.71-2.5.91-.3,2.21-1.68,2.1-2.36-.18-1.06-1.23-2.47-2.23-2.81-5.61-1.91-11.28-3.69-17.02-5.2-1.67-.44-3.8-.29-5.36.4-1.46.64-3.26,2.25-3.43,3.62-.16,1.33,1.22,3.68,2.5,4.21,4.55,1.89,9.34,3.2,13.74,4.63Zm31.08,112.68c2.42-.84,5.94-1.81,9.16-3.39.73-.36,1.12-3.44.45-4.24-2.25-2.68-4.91-5.07-7.72-7.18-1.1-.83-3.22-1.2-4.46-.72-2.09.82-4.32,2.15-5.63,3.9-1.45,1.94-2.98,4.84-2.51,6.87.4,1.72,3.49,2.98,5.59,4.08,1.1.58,2.6.38,5.12.67Zm173.59-21.01c6.94-1.01,13.89-5.64,13.54-10.26-.19-2.51-2.01-5.58-4.06-7.1-2.25-1.66-4.99-.65-6.3,2.54-.31.75-2.09.78-2.76,1.52-2.39,2.67-4.6,5.5-6.87,8.27,2.15,1.67,4.3,3.35,6.45,5.02Zm-238.75-59.84c-3.57.48-7.77.3-7.56,4.89.22,4.65,4.51,2.18,7.13,2.6,2.32.37,4.83.59,6.84,1.66,2.22,1.19,4.14,2.66,5.99.02,1.89-2.7.43-5.08-2.02-6.13-3.29-1.41-6.9-2.06-10.38-3.04Zm35.87-59.6l-.78-1.27c-3.25,2.04-6.5,4.09-9.75,6.13,3.61,1.62,7.22,3.25,10.85,4.84.27.12.67.01.98-.08,3.29-.89,7.96-1.04,7.55-5.41-.15-1.64-5.09-2.84-7.86-4.2-.27-.13-.66-.02-.99-.02Zm-49.62,35.26c.92-.21,3.19-.09,4.31-1.16,1.66-1.59,2.51-4.03,3.7-6.11-2.25-.39-4.49-1.03-6.74-1.09-1.54-.04-3.13.65-4.65,1.16-1.81.62-3.57,1.41-5.35,2.12,1.61,1.56,3.12,3.26,4.88,4.62.67.52,1.93.27,3.85.46Z"/></svg>